# xmcd CD database file
#
# Track frame offsets:
#	150
#	22403
#	48769
#	67331
#	88487
#	116269
#	136298
#	157878
#	186498
#	209538
#	239417
#
# Disc length: 3482 seconds
#
# Revision: 0
# Processed by: cddbd v1.5.1PL0 Copyright (c) Steve Scherf et al.
# Submitted via: CDex 1.51
#
DISCID=a60d980b
DTITLE=Michael Fair - Love Me Like That
DYEAR=2002
DGENRE=Jazz
TTITLE0=Michael Fair - Love me Like That - 01 - Never Love Again
TTITLE1=Michael Fair - Love me Like That - 02 - Lucy
TTITLE2=Michael Fair - Love me Like That - 03 - Can't Let Go
TTITLE3=Michael Fair - Love me Like That - 04 - Flap Cake
TTITLE4=Michael Fair - Love me Like That - 05 - Southern Samba
TTITLE5=Michael Fair - Love me Like That - 06 - Red Pump Strut
TTITLE6=Michael Fair - Love me Like That - 07 - The Way Love Goes
TTITLE7=Michael Fair - Love me Like That - 08 - Love Me Like That
TTITLE8=Michael Fair - Love me Like That - 09 - Rhapsody In Funk Minor
TTITLE9=Michael Fair - Love me Like That - 10 - Never Felt This Way/Stay The Night
TTITLE10=Michael Fair - Love me Like That - 11 - This Guy's In Love
EXTD=YEAR: 2002
EXTT0=
EXTT1=
EXTT2=
EXTT3=
EXTT4=
EXTT5=
EXTT6=
EXTT7=
EXTT8=
EXTT9=
EXTT10=
PLAYORDER=
